ffmpeg started on 2026-04-01 at 11:51:15
Report written to "D:\Convert\FFMetrics\reports\psnr_report-6.txt"
Log level: 32
Command line:
ffmpeg -hide_banner -nostdin -r 24000/1001 -i "F:\\Convert\\files\\[DC] Make Heroine ga Oosugiru - 07_Telegram_HEVC(276).mkv" -r 24000/1001 -i "F:\\Convert\\files\\[DC] Make Heroine ga Oosugiru - 07_Telegram.mp4" -lavfi "[0:v]settb=AVTB,setpts=PTS-STARTPTS,format=pix_fmts=yuv420p10le,fps=24000/1001,scale=1920:1080:flags=lanczos:param0=3:out_range=limited:out_color_matrix=bt709:out_chroma_loc=left,setsar=1/1,setdar=(1920/1080)*(1/1),colorspace=format=yuv420p10:range=tv:primaries=bt709:trc=bt709:space=bt709:fast=0[main];[1:v]settb=AVTB,setpts=PTS-STARTPTS,format=pix_fmts=yuv420p,fps=24000/1001,scale=1920:1080:flags=lanczos:param0=3:out_range=limited:out_color_matrix=bt709:out_chroma_loc=left,setsar=1/1,setdar=(1920/1080)*(1/1),colorspace=format=yuv420p:range=tv:primaries=bt709:trc=bt709:space=bt709:fast=0[ref];[main][ref]psnr=eof_action=endall:stats_file='D\\:/Convert/FFMetrics/logs/psnr_logfile-6.txt'" -f null -
Input #0, matroska,webm, from 'F:\Convert\files\[DC] Make Heroine ga Oosugiru - 07_Telegram_HEVC(276).mkv':
  Metadata:
    COMPATIBLE_BRANDS: isomiso2avc1mp41
    MAJOR_BRAND     : isom
    MINOR_VERSION   : 512
    ENCODER         : Lavf61.7.100
  Duration: 00:24:06.79, start: -0.021000, bitrate: 991 kb/s
  Stream #0:0: Video: hevc (Main 10), yuv420p10le(tv, bt709, progressive), 1920x1080 [SAR 1:1 DAR 16:9], 23.98 fps, 23.98 tbr, 1k tbn (default)
      Metadata:
        HANDLER_NAME    : VideoHandler
        VENDOR_ID       : [0][0][0][0]
        ENCODER         : Lavc61.19.100 libx265
        BPS             : 794223
        DURATION        : 00:24:06.569708333
        NUMBER_OF_FRAMES: 34683
        NUMBER_OF_BYTES : 143612369
        _STATISTICS_WRITING_APP: mkvpropedit v94.0 ('Initiate') 64-bit
        _STATISTICS_WRITING_DATE_UTC: 2026-03-30 13:13:37
        _STATISTICS_TAGS: BPS DURATION NUMBER_OF_FRAMES NUMBER_OF_BYTES
  Stream #0:1: Audio: aac (LC), 48000 Hz, stereo, fltp (default)
      Metadata:
        HANDLER_NAME    : SoundHandler
        VENDOR_ID       : [0][0][0][0]
        ENCODER         : Lavc61.19.100 aac
        BPS             : 193194
        DURATION        : 00:24:06.784000000
        NUMBER_OF_FRAMES: 67819
        NUMBER_OF_BYTES : 34938755
        _STATISTICS_WRITING_APP: mkvpropedit v94.0 ('Initiate') 64-bit
        _STATISTICS_WRITING_DATE_UTC: 2026-03-30 13:13:37
        _STATISTICS_TAGS: BPS DURATION NUMBER_OF_FRAMES NUMBER_OF_BYTES
Input #1, mov,mp4,m4a,3gp,3g2,mj2, from 'F:\Convert\files\[DC] Make Heroine ga Oosugiru - 07_Telegram.mp4':
  Metadata:
    major_brand     : isom
    minor_version   : 512
    compatible_brands: isomiso2avc1mp41
    encoder         : Lavf60.16.100
  Duration: 00:24:06.74, start: 0.000000, bitrate: 3764 kb/s
  Stream #1:0[0x1](und): Video: h264 (High) (avc1 / 0x31637661), yuv420p(tv, bt709, progressive), 1920x1080 [SAR 1:1 DAR 16:9], 3616 kb/s, 23.98 fps, 23.98 tbr, 24k tbn (default)
      Metadata:
        handler_name    : VideoHandler
        vendor_id       : [0][0][0][0]
        encoder         : Lavc60.31.102 h264_qsv
  Stream #1:1[0x2](und): Audio: aac (HE-AACv2) (mp4a / 0x6134706D), 48000 Hz, stereo, fltp, 144 kb/s (default)
      Metadata:
        handler_name    : SoundHandler
        vendor_id       : [0][0][0][0]
Stream mapping:
  Stream #0:0 (hevc) -> settb:default
  Stream #1:0 (h264) -> settb:default
  psnr:default -> Stream #0:0 (wrapped_avframe)
  Stream #0:1 -> #0:1 (aac (native) -> pcm_s16le (native))
Output #0, null, to 'pipe:':
  Metadata:
    COMPATIBLE_BRANDS: isomiso2avc1mp41
    MAJOR_BRAND     : isom
    MINOR_VERSION   : 512
    encoder         : Lavf61.7.100
  Stream #0:0: Video: wrapped_avframe, yuv420p10le(tv, bt709, progressive), 1920x1080 [SAR 1:1 DAR 16:9], q=2-31, 200 kb/s, 23.98 fps, 23.98 tbn
      Metadata:
        encoder         : Lavc61.19.100 wrapped_avframe
  Stream #0:1: Audio: pcm_s16le, 48000 Hz, stereo, s16, 1536 kb/s (default)
      Metadata:
        HANDLER_NAME    : SoundHandler
        VENDOR_ID       : [0][0][0][0]
        _STATISTICS_TAGS: BPS DURATION NUMBER_OF_FRAMES NUMBER_OF_BYTES
        BPS             : 193194
        DURATION        : 00:24:06.784000000
        NUMBER_OF_FRAMES: 67819
        NUMBER_OF_BYTES : 34938755
        _STATISTICS_WRITING_APP: mkvpropedit v94.0 ('Initiate') 64-bit
        _STATISTICS_WRITING_DATE_UTC: 2026-03-30 13:13:37
        encoder         : Lavc61.19.100 pcm_s16le
frame=  131 fps=0.0 q=-0.0 size=N/A time=00:00:05.46 bitrate=N/A speed=10.6x    frame=  325 fps=316 q=-0.0 size=N/A time=00:00:13.55 bitrate=N/A speed=13.2x    frame=  523 fps=336 q=-0.0 size=N/A time=00:00:21.81 bitrate=N/A speed=  14x    frame=  730 fps=351 q=-0.0 size=N/A time=00:00:30.44 bitrate=N/A speed=14.6x    frame=  907 fps=350 q=-0.0 size=N/A time=00:00:37.82 bitrate=N/A speed=14.6x    frame= 1054 fps=340 q=-0.0 size=N/A time=00:00:43.96 bitrate=N/A speed=14.2x    frame= 1215 fps=335 q=-0.0 size=N/A time=00:00:50.67 bitrate=N/A speed=  14x    frame= 1383 fps=334 q=-0.0 size=N/A time=00:00:57.68 bitrate=N/A speed=13.9x    frame= 1536 fps=330 q=-0.0 size=N/A time=00:01:04.06 bitrate=N/A speed=13.8x    frame= 1674 fps=324 q=-0.0 size=N/A time=00:01:09.81 bitrate=N/A speed=13.5x    frame= 1843 fps=324 q=-0.0 size=N/A time=00:01:16.86 bitrate=N/A speed=13.5x    frame= 2010 fps=324 q=-0.0 size=N/A time=00:01:23.83 bitrate=N/A speed=13.5x    frame= 2105 fps=314 q=-0.0 size=N/A time=00:01:27.79 bitrate=N/A speed=13.1x    frame= 2266 fps=313 q=-0.0 size=N/A time=00:01:34.51 bitrate=N/A speed=13.1x    frame= 2414 fps=311 q=-0.0 size=N/A time=00:01:40.68 bitrate=N/A speed=  13x    frame= 2546 fps=308 q=-0.0 size=N/A time=00:01:46.18 bitrate=N/A speed=12.8x    frame= 2711 fps=309 q=-0.0 size=N/A time=00:01:53.07 bitrate=N/A speed=12.9x    frame= 2882 fps=310 q=-0.0 size=N/A time=00:02:00.20 bitrate=N/A speed=12.9x    frame= 3076 fps=313 q=-0.0 size=N/A time=00:02:08.29 bitrate=N/A speed=13.1x    frame= 3262 fps=316 q=-0.0 size=N/A time=00:02:16.05 bitrate=N/A speed=13.2x    frame= 3462 fps=319 q=-0.0 size=N/A time=00:02:24.39 bitrate=N/A speed=13.3x    frame= 3654 fps=322 q=-0.0 size=N/A time=00:02:32.40 bitrate=N/A speed=13.4x    frame= 3856 fps=325 q=-0.0 size=N/A time=00:02:40.82 bitrate=N/A speed=13.5x    frame= 4051 fps=327 q=-0.0 size=N/A time=00:02:48.96 bitrate=N/A speed=13.6x    frame= 4243 fps=329 q=-0.0 size=N/A time=00:02:56.96 bitrate=N/A speed=13.7x    frame= 4442 fps=331 q=-0.0 size=N/A time=00:03:05.26 bitrate=N/A speed=13.8x    frame= 4640 fps=333 q=-0.0 size=N/A time=00:03:13.52 bitrate=N/A speed=13.9x    frame= 4832 fps=334 q=-0.0 size=N/A time=00:03:21.53 bitrate=N/A speed=13.9x    frame= 5032 fps=336 q=-0.0 size=N/A time=00:03:29.87 bitrate=N/A speed=  14x    frame= 5225 fps=337 q=-0.0 size=N/A time=00:03:37.92 bitrate=N/A speed=14.1x    frame= 5420 fps=339 q=-0.0 size=N/A time=00:03:46.05 bitrate=N/A speed=14.1x    frame= 5613 fps=340 q=-0.0 size=N/A time=00:03:54.10 bitrate=N/A speed=14.2x    frame= 5805 fps=341 q=-0.0 size=N/A time=00:04:02.11 bitrate=N/A speed=14.2x    frame= 5998 fps=342 q=-0.0 size=N/A time=00:04:10.16 bitrate=N/A speed=14.3x    frame= 6196 fps=343 q=-0.0 size=N/A time=00:04:18.42 bitrate=N/A speed=14.3x    frame= 6375 fps=343 q=-0.0 size=N/A time=00:04:25.89 bitrate=N/A speed=14.3x    frame= 6571 fps=344 q=-0.0 size=N/A time=00:04:34.06 bitrate=N/A speed=14.4x    frame= 6767 fps=345 q=-0.0 size=N/A time=00:04:42.24 bitrate=N/A speed=14.4x    frame= 6972 fps=346 q=-0.0 size=N/A time=00:04:50.79 bitrate=N/A speed=14.4x    frame= 7152 fps=346 q=-0.0 size=N/A time=00:04:58.29 bitrate=N/A speed=14.5x    frame= 7347 fps=347 q=-0.0 size=N/A time=00:05:06.43 bitrate=N/A speed=14.5x    frame= 7535 fps=348 q=-0.0 size=N/A time=00:05:14.27 bitrate=N/A speed=14.5x    frame= 7713 fps=348 q=-0.0 size=N/A time=00:05:21.69 bitrate=N/A speed=14.5x    frame= 7896 fps=348 q=-0.0 size=N/A time=00:05:29.32 bitrate=N/A speed=14.5x    frame= 8079 fps=348 q=-0.0 size=N/A time=00:05:36.96 bitrate=N/A speed=14.5x    frame= 8262 fps=348 q=-0.0 size=N/A time=00:05:44.59 bitrate=N/A speed=14.5x    frame= 8452 fps=349 q=-0.0 size=N/A time=00:05:52.51 bitrate=N/A speed=14.5x    frame= 8647 fps=349 q=-0.0 size=N/A time=00:06:00.65 bitrate=N/A speed=14.6x    frame= 8833 fps=349 q=-0.0 size=N/A time=00:06:08.40 bitrate=N/A speed=14.6x    frame= 9022 fps=350 q=-0.0 size=N/A time=00:06:16.29 bitrate=N/A speed=14.6x    frame= 9215 fps=350 q=-0.0 size=N/A time=00:06:24.34 bitrate=N/A speed=14.6x    frame= 9411 fps=351 q=-0.0 size=N/A time=00:06:32.51 bitrate=N/A speed=14.6x    frame= 9601 fps=351 q=-0.0 size=N/A time=00:06:40.44 bitrate=N/A speed=14.6x    frame= 9796 fps=352 q=-0.0 size=N/A time=00:06:48.57 bitrate=N/A speed=14.7x    frame= 9993 fps=352 q=-0.0 size=N/A time=00:06:56.79 bitrate=N/A speed=14.7x    frame=10173 fps=352 q=-0.0 size=N/A time=00:07:04.29 bitrate=N/A speed=14.7x    frame=10361 fps=352 q=-0.0 size=N/A time=00:07:12.14 bitrate=N/A speed=14.7x    frame=10557 fps=353 q=-0.0 size=N/A time=00:07:20.31 bitrate=N/A speed=14.7x    frame=10737 fps=353 q=-0.0 size=N/A time=00:07:27.82 bitrate=N/A speed=14.7x    frame=10921 fps=353 q=-0.0 size=N/A time=00:07:35.49 bitrate=N/A speed=14.7x    frame=11114 fps=353 q=-0.0 size=N/A time=00:07:43.54 bitrate=N/A speed=14.7x    frame=11296 fps=353 q=-0.0 size=N/A time=00:07:51.13 bitrate=N/A speed=14.7x    frame=11492 fps=354 q=-0.0 size=N/A time=00:07:59.31 bitrate=N/A speed=14.7x    frame=11685 fps=354 q=-0.0 size=N/A time=00:08:07.36 bitrate=N/A speed=14.8x    frame=11875 fps=354 q=-0.0 size=N/A time=00:08:15.28 bitrate=N/A speed=14.8x    frame=12078 fps=355 q=-0.0 size=N/A time=00:08:23.75 bitrate=N/A speed=14.8x    frame=12266 fps=355 q=-0.0 size=N/A time=00:08:31.59 bitrate=N/A speed=14.8x    frame=12454 fps=355 q=-0.0 size=N/A time=00:08:39.43 bitrate=N/A speed=14.8x    frame=12648 fps=355 q=-0.0 size=N/A time=00:08:47.52 bitrate=N/A speed=14.8x    frame=12843 fps=356 q=-0.0 size=N/A time=00:08:55.66 bitrate=N/A speed=14.8x    frame=13034 fps=356 q=-0.0 size=N/A time=00:09:03.62 bitrate=N/A speed=14.8x    frame=13229 fps=356 q=-0.0 size=N/A time=00:09:11.75 bitrate=N/A speed=14.9x    frame=13414 fps=356 q=-0.0 size=N/A time=00:09:19.47 bitrate=N/A speed=14.9x    frame=13601 fps=356 q=-0.0 size=N/A time=00:09:27.27 bitrate=N/A speed=14.9x    frame=13797 fps=357 q=-0.0 size=N/A time=00:09:35.44 bitrate=N/A speed=14.9x    frame=13986 fps=357 q=-0.0 size=N/A time=00:09:43.33 bitrate=N/A speed=14.9x    frame=14160 fps=356 q=-0.0 size=N/A time=00:09:50.59 bitrate=N/A speed=14.9x    frame=14342 fps=356 q=-0.0 size=N/A time=00:09:58.18 bitrate=N/A speed=14.9x    frame=14536 fps=357 q=-0.0 size=N/A time=00:10:06.27 bitrate=N/A speed=14.9x    frame=14725 fps=357 q=-0.0 size=N/A time=00:10:14.15 bitrate=N/A speed=14.9x    frame=14905 fps=357 q=-0.0 size=N/A time=00:10:21.66 bitrate=N/A speed=14.9x    frame=15085 fps=356 q=-0.0 size=N/A time=00:10:29.17 bitrate=N/A speed=14.9x    frame=15243 fps=356 q=-0.0 size=N/A time=00:10:35.76 bitrate=N/A speed=14.8x    frame=15439 fps=356 q=-0.0 size=N/A time=00:10:43.93 bitrate=N/A speed=14.9x    frame=15628 fps=356 q=-0.0 size=N/A time=00:10:51.81 bitrate=N/A speed=14.9x    frame=15820 fps=356 q=-0.0 size=N/A time=00:10:59.82 bitrate=N/A speed=14.9x    frame=16006 fps=357 q=-0.0 size=N/A time=00:11:07.58 bitrate=N/A speed=14.9x    frame=16201 fps=357 q=-0.0 size=N/A time=00:11:15.71 bitrate=N/A speed=14.9x    frame=16392 fps=357 q=-0.0 size=N/A time=00:11:23.68 bitrate=N/A speed=14.9x    frame=16580 fps=357 q=-0.0 size=N/A time=00:11:31.52 bitrate=N/A speed=14.9x    frame=16770 fps=357 q=-0.0 size=N/A time=00:11:39.44 bitrate=N/A speed=14.9x    frame=16947 fps=357 q=-0.0 size=N/A time=00:11:46.83 bitrate=N/A speed=14.9x    frame=17145 fps=357 q=-0.0 size=N/A time=00:11:55.08 bitrate=N/A speed=14.9x    frame=17336 fps=357 q=-0.0 size=N/A time=00:12:03.05 bitrate=N/A speed=14.9x    frame=17518 fps=357 q=-0.0 size=N/A time=00:12:10.64 bitrate=N/A speed=14.9x    frame=17697 fps=357 q=-0.0 size=N/A time=00:12:18.11 bitrate=N/A speed=14.9x    frame=17888 fps=357 q=-0.0 size=N/A time=00:12:26.07 bitrate=N/A speed=14.9x    frame=18081 fps=358 q=-0.0 size=N/A time=00:12:34.12 bitrate=N/A speed=14.9x    frame=18259 fps=358 q=-0.0 size=N/A time=00:12:41.55 bitrate=N/A speed=14.9x    frame=18450 fps=358 q=-0.0 size=N/A time=00:12:49.51 bitrate=N/A speed=14.9x    frame=18638 fps=358 q=-0.0 size=N/A time=00:12:57.35 bitrate=N/A speed=14.9x    frame=18836 fps=358 q=-0.0 size=N/A time=00:13:05.61 bitrate=N/A speed=14.9x    frame=19021 fps=358 q=-0.0 size=N/A time=00:13:13.33 bitrate=N/A speed=14.9x    frame=19221 fps=358 q=-0.0 size=N/A time=00:13:21.67 bitrate=N/A speed=14.9x    frame=19404 fps=358 q=-0.0 size=N/A time=00:13:29.30 bitrate=N/A speed=14.9x    frame=19602 fps=358 q=-0.0 size=N/A time=00:13:37.56 bitrate=N/A speed=14.9x    frame=19792 fps=359 q=-0.0 size=N/A time=00:13:45.49 bitrate=N/A speed=  15x    frame=19996 fps=359 q=-0.0 size=N/A time=00:13:53.99 bitrate=N/A speed=  15x    frame=20189 fps=359 q=-0.0 size=N/A time=00:14:02.04 bitrate=N/A speed=  15x    frame=20378 fps=359 q=-0.0 size=N/A time=00:14:09.93 bitrate=N/A speed=  15x    frame=20563 fps=359 q=-0.0 size=N/A time=00:14:17.64 bitrate=N/A speed=  15x    frame=20747 fps=359 q=-0.0 size=N/A time=00:14:25.32 bitrate=N/A speed=  15x    frame=20947 fps=359 q=-0.0 size=N/A time=00:14:33.66 bitrate=N/A speed=  15x    frame=21140 fps=359 q=-0.0 size=N/A time=00:14:41.71 bitrate=N/A speed=  15x    frame=21331 fps=360 q=-0.0 size=N/A time=00:14:49.68 bitrate=N/A speed=  15x    frame=21532 fps=360 q=-0.0 size=N/A time=00:14:58.06 bitrate=N/A speed=  15x    frame=21723 fps=360 q=-0.0 size=N/A time=00:15:06.03 bitrate=N/A speed=  15x    frame=21916 fps=360 q=-0.0 size=N/A time=00:15:14.07 bitrate=N/A speed=  15x    frame=22112 fps=360 q=-0.0 size=N/A time=00:15:22.25 bitrate=N/A speed=  15x    frame=22312 fps=360 q=-0.0 size=N/A time=00:15:30.59 bitrate=N/A speed=  15x    frame=22507 fps=361 q=-0.0 size=N/A time=00:15:38.72 bitrate=N/A speed=  15x    frame=22698 fps=361 q=-0.0 size=N/A time=00:15:46.69 bitrate=N/A speed=  15x    frame=22887 fps=361 q=-0.0 size=N/A time=00:15:54.57 bitrate=N/A speed=  15x    frame=23080 fps=361 q=-0.0 size=N/A time=00:16:02.62 bitrate=N/A speed=  15x    frame=23278 fps=361 q=-0.0 size=N/A time=00:16:10.88 bitrate=N/A speed=15.1x    frame=23479 fps=361 q=-0.0 size=N/A time=00:16:19.26 bitrate=N/A speed=15.1x    frame=23666 fps=361 q=-0.0 size=N/A time=00:16:27.06 bitrate=N/A speed=15.1x    frame=23859 fps=361 q=-0.0 size=N/A time=00:16:35.11 bitrate=N/A speed=15.1x    frame=24054 fps=361 q=-0.0 size=N/A time=00:16:43.25 bitrate=N/A speed=15.1x    frame=24252 fps=362 q=-0.0 size=N/A time=00:16:51.51 bitrate=N/A speed=15.1x    frame=24449 fps=362 q=-0.0 size=N/A time=00:16:59.72 bitrate=N/A speed=15.1x    frame=24643 fps=362 q=-0.0 size=N/A time=00:17:07.81 bitrate=N/A speed=15.1x    frame=24842 fps=362 q=-0.0 size=N/A time=00:17:16.11 bitrate=N/A speed=15.1x    frame=25038 fps=362 q=-0.0 size=N/A time=00:17:24.29 bitrate=N/A speed=15.1x    frame=25230 fps=362 q=-0.0 size=N/A time=00:17:32.30 bitrate=N/A speed=15.1x    frame=25419 fps=362 q=-0.0 size=N/A time=00:17:40.18 bitrate=N/A speed=15.1x    frame=25618 fps=362 q=-0.0 size=N/A time=00:17:48.48 bitrate=N/A speed=15.1x    frame=25803 fps=362 q=-0.0 size=N/A time=00:17:56.20 bitrate=N/A speed=15.1x    frame=26002 fps=363 q=-0.0 size=N/A time=00:18:04.50 bitrate=N/A speed=15.1x    frame=26196 fps=363 q=-0.0 size=N/A time=00:18:12.59 bitrate=N/A speed=15.1x    frame=26397 fps=363 q=-0.0 size=N/A time=00:18:20.97 bitrate=N/A speed=15.1x    frame=26594 fps=363 q=-0.0 size=N/A time=00:18:29.19 bitrate=N/A speed=15.1x    frame=26783 fps=363 q=-0.0 size=N/A time=00:18:37.07 bitrate=N/A speed=15.1x    frame=26970 fps=363 q=-0.0 size=N/A time=00:18:44.87 bitrate=N/A speed=15.1x    frame=27152 fps=363 q=-0.0 size=N/A time=00:18:52.46 bitrate=N/A speed=15.1x    frame=27334 fps=363 q=-0.0 size=N/A time=00:19:00.05 bitrate=N/A speed=15.1x    frame=27517 fps=363 q=-0.0 size=N/A time=00:19:07.68 bitrate=N/A speed=15.1x    frame=27715 fps=363 q=-0.0 size=N/A time=00:19:15.94 bitrate=N/A speed=15.1x    frame=27904 fps=363 q=-0.0 size=N/A time=00:19:23.82 bitrate=N/A speed=15.1x    frame=28095 fps=363 q=-0.0 size=N/A time=00:19:31.79 bitrate=N/A speed=15.1x    frame=28285 fps=363 q=-0.0 size=N/A time=00:19:39.72 bitrate=N/A speed=15.1x    frame=28477 fps=363 q=-0.0 size=N/A time=00:19:47.72 bitrate=N/A speed=15.1x    frame=28667 fps=363 q=-0.0 size=N/A time=00:19:55.65 bitrate=N/A speed=15.1x    frame=28840 fps=363 q=-0.0 size=N/A time=00:20:02.86 bitrate=N/A speed=15.1x    frame=29006 fps=363 q=-0.0 size=N/A time=00:20:09.79 bitrate=N/A speed=15.1x    frame=29183 fps=363 q=-0.0 size=N/A time=00:20:17.17 bitrate=N/A speed=15.1x    frame=29365 fps=363 q=-0.0 size=N/A time=00:20:24.76 bitrate=N/A speed=15.1x    frame=29534 fps=362 q=-0.0 size=N/A time=00:20:31.81 bitrate=N/A speed=15.1x    frame=29704 fps=362 q=-0.0 size=N/A time=00:20:38.90 bitrate=N/A speed=15.1x    frame=29883 fps=362 q=-0.0 size=N/A time=00:20:46.37 bitrate=N/A speed=15.1x    frame=30040 fps=362 q=-0.0 size=N/A time=00:20:52.91 bitrate=N/A speed=15.1x    frame=30222 fps=362 q=-0.0 size=N/A time=00:21:00.50 bitrate=N/A speed=15.1x    frame=30409 fps=362 q=-0.0 size=N/A time=00:21:08.30 bitrate=N/A speed=15.1x    frame=30599 fps=362 q=-0.0 size=N/A time=00:21:16.23 bitrate=N/A speed=15.1x    frame=30789 fps=362 q=-0.0 size=N/A time=00:21:24.15 bitrate=N/A speed=15.1x    frame=30983 fps=362 q=-0.0 size=N/A time=00:21:32.24 bitrate=N/A speed=15.1x    frame=31162 fps=362 q=-0.0 size=N/A time=00:21:39.71 bitrate=N/A speed=15.1x    frame=31344 fps=362 q=-0.0 size=N/A time=00:21:47.30 bitrate=N/A speed=15.1x    frame=31524 fps=362 q=-0.0 size=N/A time=00:21:54.81 bitrate=N/A speed=15.1x    frame=31720 fps=362 q=-0.0 size=N/A time=00:22:02.98 bitrate=N/A speed=15.1x    frame=31898 fps=362 q=-0.0 size=N/A time=00:22:10.41 bitrate=N/A speed=15.1x    frame=32081 fps=362 q=-0.0 size=N/A time=00:22:18.04 bitrate=N/A speed=15.1x    frame=32275 fps=362 q=-0.0 size=N/A time=00:22:26.13 bitrate=N/A speed=15.1x    frame=32464 fps=362 q=-0.0 size=N/A time=00:22:34.01 bitrate=N/A speed=15.1x    frame=32641 fps=362 q=-0.0 size=N/A time=00:22:41.40 bitrate=N/A speed=15.1x    frame=32783 fps=361 q=-0.0 size=N/A time=00:22:47.32 bitrate=N/A speed=15.1x    frame=32954 fps=361 q=-0.0 size=N/A time=00:22:54.45 bitrate=N/A speed=15.1x    frame=33130 fps=361 q=-0.0 size=N/A time=00:23:01.79 bitrate=N/A speed=  15x    frame=33315 fps=361 q=-0.0 size=N/A time=00:23:09.51 bitrate=N/A speed=  15x    frame=33475 fps=361 q=-0.0 size=N/A time=00:23:16.18 bitrate=N/A speed=  15x    frame=33633 fps=360 q=-0.0 size=N/A time=00:23:22.77 bitrate=N/A speed=  15x    frame=33762 fps=360 q=-0.0 size=N/A time=00:23:28.15 bitrate=N/A speed=  15x    frame=33888 fps=359 q=-0.0 size=N/A time=00:23:33.41 bitrate=N/A speed=  15x    frame=34045 fps=359 q=-0.0 size=N/A time=00:23:39.96 bitrate=N/A speed=  15x    frame=34202 fps=358 q=-0.0 size=N/A time=00:23:46.50 bitrate=N/A speed=14.9x    frame=34337 fps=358 q=-0.0 size=N/A time=00:23:52.13 bitrate=N/A speed=14.9x    frame=34462 fps=357 q=-0.0 size=N/A time=00:23:57.35 bitrate=N/A speed=14.9x    frame=34647 fps=357 q=-0.0 size=N/A time=00:24:05.06 bitrate=N/A speed=14.9x    [Parsed_psnr_16 @ 0000023efd51f280] PSNR y:48.942023 u:50.322652 v:50.373857 average:49.362105 min:38.048037 max:inf
[out#0/null @ 0000023ef081dec0] video:14903KiB audio:271276KiB subtitle:0KiB other streams:0KiB global headers:0KiB muxing overhead: unknown
frame=34683 fps=357 q=-0.0 Lsize=N/A time=00:24:06.57 bitrate=N/A speed=14.9x    
